<mxfile host="app.diagrams.net" modified="2022-04-12T07:46:32.410Z" agent="5.0 (Macintosh; Intel Mac OS X 10_15_7) AppleWebKit/537.36 (KHTML, like Gecko) Chrome/100.0.4896.88 Safari/537.36" etag="LfMEuIEAPoBTUAnBXGXB" version="17.4.3" type="github">
  <diagram id="SFCEH-4JDymCAtlbINal" name="Page-1">
    <mxGraphModel dx="1393" dy="1019" grid="1" gridSize="10" guides="1" tooltips="1" connect="1" arrows="1" fold="1" page="1" pageScale="1" pageWidth="1600" pageHeight="900" background="none" math="0" shadow="0">
      <root>
        <mxCell id="0" />
        <mxCell id="1" parent="0" />
        <mxCell id="wjjax50cRB5O2B1YmNTK-19" value="Private subnet" style="points=[[0,0],[0.25,0],[0.5,0],[0.75,0],[1,0],[1,0.25],[1,0.5],[1,0.75],[1,1],[0.75,1],[0.5,1],[0.25,1],[0,1],[0,0.75],[0,0.5],[0,0.25]];outlineConnect=0;gradientColor=none;html=1;whiteSpace=wrap;fontSize=12;fontStyle=0;container=1;pointerEvents=0;collapsible=0;recursiveResize=0;shape=mxgraph.aws4.group;grIcon=mxgraph.aws4.group_security_group;grStroke=0;strokeColor=#147EBA;fillColor=#E6F2F8;verticalAlign=top;align=left;spacingLeft=30;fontColor=#147EBA;dashed=0;" vertex="1" parent="1">
          <mxGeometry x="240" y="160" width="640" height="480" as="geometry" />
        </mxCell>
        <mxCell id="wjjax50cRB5O2B1YmNTK-15" value="VPC" style="points=[[0,0],[0.25,0],[0.5,0],[0.75,0],[1,0],[1,0.25],[1,0.5],[1,0.75],[1,1],[0.75,1],[0.5,1],[0.25,1],[0,1],[0,0.75],[0,0.5],[0,0.25]];outlineConnect=0;gradientColor=none;html=1;whiteSpace=wrap;fontSize=12;fontStyle=0;container=0;pointerEvents=0;collapsible=0;recursiveResize=0;shape=mxgraph.aws4.group;grIcon=mxgraph.aws4.group_vpc;strokeColor=#248814;fillColor=none;verticalAlign=top;align=left;spacingLeft=30;fontColor=#AAB7B8;dashed=0;" vertex="1" parent="1">
          <mxGeometry x="200" y="120" width="1000" height="560" as="geometry" />
        </mxCell>
        <mxCell id="wjjax50cRB5O2B1YmNTK-33" value="EKS Cluster" style="points=[[0,0],[0.25,0],[0.5,0],[0.75,0],[1,0],[1,0.25],[1,0.5],[1,0.75],[1,1],[0.75,1],[0.5,1],[0.25,1],[0,1],[0,0.75],[0,0.5],[0,0.25]];outlineConnect=0;gradientColor=none;html=1;whiteSpace=wrap;fontSize=12;fontStyle=0;container=1;pointerEvents=0;collapsible=0;recursiveResize=0;shape=mxgraph.aws4.group;grIcon=mxgraph.aws4.eks;strokeColor=#D86613;fillColor=none;verticalAlign=top;align=left;spacingLeft=30;fontColor=#D86613;dashed=0;" vertex="1" parent="1">
          <mxGeometry x="180" y="90" width="540" height="610" as="geometry" />
        </mxCell>
        <mxCell id="wjjax50cRB5O2B1YmNTK-49" value="" style="edgeStyle=orthogonalEdgeStyle;rounded=0;orthogonalLoop=1;jettySize=auto;html=1;entryX=0;entryY=0.5;entryDx=0;entryDy=0;verticalAlign=middle;strokeColor=none;" edge="1" parent="wjjax50cRB5O2B1YmNTK-33" source="wjjax50cRB5O2B1YmNTK-36" target="wjjax50cRB5O2B1YmNTK-42">
          <mxGeometry relative="1" as="geometry" />
        </mxCell>
        <mxCell id="wjjax50cRB5O2B1YmNTK-36" value="Worker Nodes" style="fillColor=none;strokeColor=#5A6C86;dashed=1;verticalAlign=top;fontStyle=0;fontColor=#5A6C86;" vertex="1" parent="wjjax50cRB5O2B1YmNTK-33">
          <mxGeometry x="120" y="120" width="170" height="330" as="geometry" />
        </mxCell>
        <mxCell id="wjjax50cRB5O2B1YmNTK-12" value="Availability Zone" style="fillColor=none;strokeColor=#147EBA;dashed=1;verticalAlign=top;fontStyle=0;fontColor=#147EBA;" vertex="1" parent="wjjax50cRB5O2B1YmNTK-33">
          <mxGeometry x="145" y="199" width="120" height="80" as="geometry" />
        </mxCell>
        <mxCell id="wjjax50cRB5O2B1YmNTK-37" value="Availability Zone" style="fillColor=none;strokeColor=#147EBA;dashed=1;verticalAlign=top;fontStyle=0;fontColor=#147EBA;" vertex="1" parent="wjjax50cRB5O2B1YmNTK-33">
          <mxGeometry x="145" y="320" width="120" height="80" as="geometry" />
        </mxCell>
        <mxCell id="wjjax50cRB5O2B1YmNTK-38" value="" style="sketch=0;outlineConnect=0;fontColor=#232F3E;gradientColor=none;fillColor=#D45B07;strokeColor=none;dashed=0;verticalLabelPosition=bottom;verticalAlign=top;align=center;html=1;fontSize=12;fontStyle=0;aspect=fixed;pointerEvents=1;shape=mxgraph.aws4.c5n_instance;" vertex="1" parent="wjjax50cRB5O2B1YmNTK-33">
          <mxGeometry x="181" y="230" width="48" height="48" as="geometry" />
        </mxCell>
        <mxCell id="wjjax50cRB5O2B1YmNTK-39" value="" style="sketch=0;outlineConnect=0;fontColor=#232F3E;gradientColor=none;fillColor=#D45B07;strokeColor=none;dashed=0;verticalLabelPosition=bottom;verticalAlign=top;align=center;html=1;fontSize=12;fontStyle=0;aspect=fixed;pointerEvents=1;shape=mxgraph.aws4.c5n_instance;" vertex="1" parent="wjjax50cRB5O2B1YmNTK-33">
          <mxGeometry x="181" y="352" width="48" height="48" as="geometry" />
        </mxCell>
        <mxCell id="wjjax50cRB5O2B1YmNTK-24" value="Auto Scaling group" style="points=[[0,0],[0.25,0],[0.5,0],[0.75,0],[1,0],[1,0.25],[1,0.5],[1,0.75],[1,1],[0.75,1],[0.5,1],[0.25,1],[0,1],[0,0.75],[0,0.5],[0,0.25]];outlineConnect=0;gradientColor=none;html=1;whiteSpace=wrap;fontSize=12;fontStyle=0;container=1;pointerEvents=0;collapsible=0;recursiveResize=0;shape=mxgraph.aws4.groupCenter;grIcon=mxgraph.aws4.group_auto_scaling_group;grStroke=1;strokeColor=#D86613;fillColor=none;verticalAlign=top;align=center;fontColor=#D86613;dashed=1;spacingTop=25;" vertex="1" parent="wjjax50cRB5O2B1YmNTK-33">
          <mxGeometry x="125" y="150" width="160" height="290" as="geometry" />
        </mxCell>
        <mxCell id="wjjax50cRB5O2B1YmNTK-32" style="edgeStyle=orthogonalEdgeStyle;rounded=0;orthogonalLoop=1;jettySize=auto;html=1;exitX=0.5;exitY=1;exitDx=0;exitDy=0;" edge="1" parent="wjjax50cRB5O2B1YmNTK-33" source="wjjax50cRB5O2B1YmNTK-24" target="wjjax50cRB5O2B1YmNTK-24">
          <mxGeometry relative="1" as="geometry" />
        </mxCell>
        <mxCell id="wjjax50cRB5O2B1YmNTK-42" value="PODS" style="fillColor=none;strokeColor=#5A6C86;dashed=1;verticalAlign=top;fontStyle=0;fontColor=#5A6C86;" vertex="1" parent="wjjax50cRB5O2B1YmNTK-33">
          <mxGeometry x="360" y="120" width="160" height="330" as="geometry" />
        </mxCell>
        <mxCell id="wjjax50cRB5O2B1YmNTK-43" value="Goldmine Admin" style="rounded=1;whiteSpace=wrap;html=1;" vertex="1" parent="wjjax50cRB5O2B1YmNTK-33">
          <mxGeometry x="380" y="148" width="120" height="39" as="geometry" />
        </mxCell>
        <mxCell id="wjjax50cRB5O2B1YmNTK-46" value="Argos Backend" style="rounded=1;whiteSpace=wrap;html=1;" vertex="1" parent="wjjax50cRB5O2B1YmNTK-33">
          <mxGeometry x="380" y="300" width="120" height="43" as="geometry" />
        </mxCell>
        <mxCell id="wjjax50cRB5O2B1YmNTK-47" value="ArgoCD" style="rounded=1;whiteSpace=wrap;html=1;" vertex="1" parent="wjjax50cRB5O2B1YmNTK-33">
          <mxGeometry x="380" y="349" width="120" height="43" as="geometry" />
        </mxCell>
        <mxCell id="wjjax50cRB5O2B1YmNTK-45" value="Argos Admin" style="rounded=1;whiteSpace=wrap;html=1;" vertex="1" parent="wjjax50cRB5O2B1YmNTK-33">
          <mxGeometry x="380" y="250" width="120" height="43" as="geometry" />
        </mxCell>
        <mxCell id="wjjax50cRB5O2B1YmNTK-44" value="Goldmine Backend" style="rounded=1;whiteSpace=wrap;html=1;" vertex="1" parent="wjjax50cRB5O2B1YmNTK-33">
          <mxGeometry x="380" y="198" width="120" height="43" as="geometry" />
        </mxCell>
        <mxCell id="wjjax50cRB5O2B1YmNTK-57" value="" style="edgeStyle=orthogonalEdgeStyle;rounded=0;orthogonalLoop=1;jettySize=auto;html=1;entryX=0.5;entryY=0;entryDx=0;entryDy=0;" edge="1" parent="wjjax50cRB5O2B1YmNTK-33" source="wjjax50cRB5O2B1YmNTK-48" target="wjjax50cRB5O2B1YmNTK-55">
          <mxGeometry relative="1" as="geometry">
            <mxPoint x="600" y="418.5" as="targetPoint" />
          </mxGeometry>
        </mxCell>
        <mxCell id="wjjax50cRB5O2B1YmNTK-48" value="Istio gateway" style="rounded=1;whiteSpace=wrap;html=1;" vertex="1" parent="wjjax50cRB5O2B1YmNTK-33">
          <mxGeometry x="380" y="397" width="120" height="43" as="geometry" />
        </mxCell>
        <mxCell id="wjjax50cRB5O2B1YmNTK-50" value="" style="shape=flexArrow;endArrow=classic;startArrow=classic;html=1;rounded=0;exitX=1;exitY=0.5;exitDx=0;exitDy=0;entryX=0;entryY=0.5;entryDx=0;entryDy=0;" edge="1" parent="wjjax50cRB5O2B1YmNTK-33" source="wjjax50cRB5O2B1YmNTK-36" target="wjjax50cRB5O2B1YmNTK-42">
          <mxGeometry width="100" height="100" relative="1" as="geometry">
            <mxPoint x="510" y="540" as="sourcePoint" />
            <mxPoint x="610" y="440" as="targetPoint" />
          </mxGeometry>
        </mxCell>
        <mxCell id="wjjax50cRB5O2B1YmNTK-51" value="Mapping" style="text;html=1;strokeColor=none;fillColor=none;align=center;verticalAlign=middle;whiteSpace=wrap;rounded=0;" vertex="1" parent="wjjax50cRB5O2B1YmNTK-33">
          <mxGeometry x="295" y="302.5" width="60" height="30" as="geometry" />
        </mxCell>
        <mxCell id="wjjax50cRB5O2B1YmNTK-52" value="Control Plane" style="fillColor=none;strokeColor=#5A6C86;dashed=1;verticalAlign=top;fontStyle=0;fontColor=#5A6C86;" vertex="1" parent="wjjax50cRB5O2B1YmNTK-33">
          <mxGeometry x="120" y="460" width="400" height="90" as="geometry" />
        </mxCell>
        <mxCell id="wjjax50cRB5O2B1YmNTK-53" value="CA" style="rounded=1;whiteSpace=wrap;html=1;fillColor=#ffe6cc;strokeColor=#d79b00;" vertex="1" parent="wjjax50cRB5O2B1YmNTK-33">
          <mxGeometry x="130" y="491" width="120" height="43" as="geometry" />
        </mxCell>
        <mxCell id="wjjax50cRB5O2B1YmNTK-54" value="HPA" style="rounded=1;whiteSpace=wrap;html=1;fillColor=#ffe6cc;strokeColor=#d79b00;" vertex="1" parent="wjjax50cRB5O2B1YmNTK-33">
          <mxGeometry x="260" y="491" width="120" height="43" as="geometry" />
        </mxCell>
        <mxCell id="wjjax50cRB5O2B1YmNTK-55" value="Ingress Controller" style="rounded=1;whiteSpace=wrap;html=1;fillColor=#ffe6cc;strokeColor=#d79b00;" vertex="1" parent="wjjax50cRB5O2B1YmNTK-33">
          <mxGeometry x="390" y="491" width="120" height="43" as="geometry" />
        </mxCell>
        <mxCell id="wjjax50cRB5O2B1YmNTK-69" value="Request /&lt;br&gt;Response" style="text;html=1;strokeColor=none;fillColor=none;align=center;verticalAlign=middle;whiteSpace=wrap;rounded=0;" vertex="1" parent="wjjax50cRB5O2B1YmNTK-33">
          <mxGeometry x="530" y="307.5" width="60" height="30" as="geometry" />
        </mxCell>
        <mxCell id="wjjax50cRB5O2B1YmNTK-77" value="" style="shape=image;verticalLabelPosition=bottom;labelBackgroundColor=default;verticalAlign=top;aspect=fixed;imageAspect=0;image=https://istio.io/img/logo.png;" vertex="1" parent="wjjax50cRB5O2B1YmNTK-33">
          <mxGeometry x="370" y="397" width="30" height="30" as="geometry" />
        </mxCell>
        <mxCell id="wjjax50cRB5O2B1YmNTK-4" value="Public subnet" style="points=[[0,0],[0.25,0],[0.5,0],[0.75,0],[1,0],[1,0.25],[1,0.5],[1,0.75],[1,1],[0.75,1],[0.5,1],[0.25,1],[0,1],[0,0.75],[0,0.5],[0,0.25]];outlineConnect=0;gradientColor=none;html=1;whiteSpace=wrap;fontSize=12;fontStyle=0;container=1;pointerEvents=0;collapsible=0;recursiveResize=0;shape=mxgraph.aws4.group;grIcon=mxgraph.aws4.group_security_group;grStroke=0;strokeColor=#248814;fillColor=#E9F3E6;verticalAlign=top;align=left;spacingLeft=30;fontColor=#248814;dashed=0;" vertex="1" parent="1">
          <mxGeometry x="920" y="160" width="200" height="480" as="geometry" />
        </mxCell>
        <mxCell id="wjjax50cRB5O2B1YmNTK-64" value="NAT Gateway" style="sketch=0;outlineConnect=0;fontColor=#232F3E;gradientColor=none;fillColor=#4D27AA;strokeColor=none;dashed=0;verticalLabelPosition=bottom;verticalAlign=top;align=center;html=1;fontSize=12;fontStyle=0;aspect=fixed;pointerEvents=1;shape=mxgraph.aws4.nat_gateway;" vertex="1" parent="wjjax50cRB5O2B1YmNTK-4">
          <mxGeometry x="61" y="211" width="78" height="78" as="geometry" />
        </mxCell>
        <mxCell id="wjjax50cRB5O2B1YmNTK-66" value="ALB" style="sketch=0;outlineConnect=0;fontColor=#232F3E;gradientColor=none;fillColor=#4D27AA;strokeColor=none;dashed=0;verticalLabelPosition=bottom;verticalAlign=top;align=center;html=1;fontSize=12;fontStyle=0;aspect=fixed;pointerEvents=1;shape=mxgraph.aws4.application_load_balancer;" vertex="1" parent="wjjax50cRB5O2B1YmNTK-4">
          <mxGeometry x="61" y="360" width="78" height="78" as="geometry" />
        </mxCell>
        <mxCell id="wjjax50cRB5O2B1YmNTK-20" value="Bastion Host" style="sketch=0;outlineConnect=0;fontColor=#232F3E;gradientColor=none;fillColor=#D45B07;strokeColor=none;dashed=0;verticalLabelPosition=bottom;verticalAlign=top;align=center;html=1;fontSize=12;fontStyle=0;aspect=fixed;pointerEvents=1;shape=mxgraph.aws4.instance2;" vertex="1" parent="wjjax50cRB5O2B1YmNTK-4">
          <mxGeometry x="73" y="42" width="48" height="48" as="geometry" />
        </mxCell>
        <mxCell id="wjjax50cRB5O2B1YmNTK-75" value="" style="sketch=0;outlineConnect=0;fontColor=#232F3E;gradientColor=none;fillColor=#2E27AD;strokeColor=none;dashed=0;verticalLabelPosition=bottom;verticalAlign=top;align=center;html=1;fontSize=12;fontStyle=0;aspect=fixed;pointerEvents=1;shape=mxgraph.aws4.rds_mysql_instance;" vertex="1" parent="wjjax50cRB5O2B1YmNTK-4">
          <mxGeometry x="61" y="120" width="78" height="78" as="geometry" />
        </mxCell>
        <mxCell id="wjjax50cRB5O2B1YmNTK-59" value="EFS" style="sketch=0;points=[[0,0,0],[0.25,0,0],[0.5,0,0],[0.75,0,0],[1,0,0],[0,1,0],[0.25,1,0],[0.5,1,0],[0.75,1,0],[1,1,0],[0,0.25,0],[0,0.5,0],[0,0.75,0],[1,0.25,0],[1,0.5,0],[1,0.75,0]];outlineConnect=0;fontColor=#232F3E;gradientColor=#60A337;gradientDirection=north;fillColor=#277116;strokeColor=#ffffff;dashed=0;verticalLabelPosition=bottom;verticalAlign=top;align=center;html=1;fontSize=12;fontStyle=0;aspect=fixed;shape=mxgraph.aws4.resourceIcon;resIcon=mxgraph.aws4.elastic_file_system;" vertex="1" parent="1">
          <mxGeometry x="775" y="270" width="78" height="78" as="geometry" />
        </mxCell>
        <mxCell id="wjjax50cRB5O2B1YmNTK-62" value="EBS" style="sketch=0;points=[[0,0,0],[0.25,0,0],[0.5,0,0],[0.75,0,0],[1,0,0],[0,1,0],[0.25,1,0],[0.5,1,0],[0.75,1,0],[1,1,0],[0,0.25,0],[0,0.5,0],[0,0.75,0],[1,0.25,0],[1,0.5,0],[1,0.75,0]];outlineConnect=0;fontColor=#232F3E;gradientColor=#60A337;gradientDirection=north;fillColor=#277116;strokeColor=#ffffff;dashed=0;verticalLabelPosition=bottom;verticalAlign=top;align=center;html=1;fontSize=12;fontStyle=0;aspect=fixed;shape=mxgraph.aws4.resourceIcon;resIcon=mxgraph.aws4.elastic_block_store;" vertex="1" parent="1">
          <mxGeometry x="775" y="390" width="78" height="78" as="geometry" />
        </mxCell>
        <mxCell id="wjjax50cRB5O2B1YmNTK-65" value="" style="endArrow=block;html=1;rounded=0;endFill=1;strokeColor=#006633;" edge="1" parent="1" target="wjjax50cRB5O2B1YmNTK-64">
          <mxGeometry width="50" height="50" relative="1" as="geometry">
            <mxPoint x="880" y="410" as="sourcePoint" />
            <mxPoint x="980" y="400" as="targetPoint" />
            <Array as="points">
              <mxPoint x="900" y="410" />
            </Array>
          </mxGeometry>
        </mxCell>
        <mxCell id="wjjax50cRB5O2B1YmNTK-68" value="" style="shape=flexArrow;endArrow=classic;startArrow=classic;html=1;rounded=0;exitX=1;exitY=0.5;exitDx=0;exitDy=0;entryX=0;entryY=0.5;entryDx=0;entryDy=0;" edge="1" parent="1">
          <mxGeometry width="100" height="100" relative="1" as="geometry">
            <mxPoint x="685" y="366.9999999999998" as="sourcePoint" />
            <mxPoint x="755" y="366.9999999999998" as="targetPoint" />
          </mxGeometry>
        </mxCell>
        <mxCell id="wjjax50cRB5O2B1YmNTK-70" value="Internet &lt;br&gt;Gateway" style="sketch=0;outlineConnect=0;fontColor=#232F3E;gradientColor=none;fillColor=#4D27AA;strokeColor=none;dashed=0;verticalLabelPosition=bottom;verticalAlign=top;align=center;html=1;fontSize=12;fontStyle=0;aspect=fixed;pointerEvents=1;shape=mxgraph.aws4.internet_gateway;" vertex="1" parent="1">
          <mxGeometry x="1120" y="330" width="78" height="78" as="geometry" />
        </mxCell>
        <mxCell id="wjjax50cRB5O2B1YmNTK-71" value="" style="endArrow=classic;startArrow=classic;html=1;rounded=0;edgeStyle=orthogonalEdgeStyle;" edge="1" parent="1" source="wjjax50cRB5O2B1YmNTK-66" target="wjjax50cRB5O2B1YmNTK-70">
          <mxGeometry width="50" height="50" relative="1" as="geometry">
            <mxPoint x="680" y="602.5000000000002" as="sourcePoint" />
            <mxPoint x="1110" y="380" as="targetPoint" />
          </mxGeometry>
        </mxCell>
        <mxCell id="wjjax50cRB5O2B1YmNTK-72" value="" style="endArrow=classic;startArrow=classic;html=1;rounded=0;entryX=-0.023;entryY=0.503;entryDx=0;entryDy=0;entryPerimeter=0;exitX=1.035;exitY=0.49;exitDx=0;exitDy=0;exitPerimeter=0;" edge="1" parent="1" source="wjjax50cRB5O2B1YmNTK-64" target="wjjax50cRB5O2B1YmNTK-70">
          <mxGeometry width="50" height="50" relative="1" as="geometry">
            <mxPoint x="1035.226" y="528.6749164791709" as="sourcePoint" />
            <mxPoint x="1170.0139999999997" y="420.0270656342518" as="targetPoint" />
          </mxGeometry>
        </mxCell>
        <mxCell id="wjjax50cRB5O2B1YmNTK-76" value="" style="edgeStyle=orthogonalEdgeStyle;rounded=0;orthogonalLoop=1;jettySize=auto;html=1;entryX=1;entryY=0.25;entryDx=0;entryDy=0;strokeColor=#0000CC;" edge="1" parent="1" source="wjjax50cRB5O2B1YmNTK-20" target="wjjax50cRB5O2B1YmNTK-52">
          <mxGeometry relative="1" as="geometry">
            <Array as="points">
              <mxPoint x="870" y="226" />
              <mxPoint x="870" y="540" />
              <mxPoint x="760" y="540" />
              <mxPoint x="760" y="573" />
            </Array>
          </mxGeometry>
        </mxCell>
        <mxCell id="wjjax50cRB5O2B1YmNTK-78" value="EAPP VPC" style="points=[[0,0],[0.25,0],[0.5,0],[0.75,0],[1,0],[1,0.25],[1,0.5],[1,0.75],[1,1],[0.75,1],[0.5,1],[0.25,1],[0,1],[0,0.75],[0,0.5],[0,0.25]];outlineConnect=0;gradientColor=none;html=1;whiteSpace=wrap;fontSize=12;fontStyle=0;container=1;pointerEvents=0;collapsible=0;recursiveResize=0;shape=mxgraph.aws4.group;grIcon=mxgraph.aws4.group_vpc;strokeColor=#248814;fillColor=none;verticalAlign=top;align=left;spacingLeft=30;fontColor=#AAB7B8;dashed=0;" vertex="1" parent="1">
          <mxGeometry x="1360" y="120" width="120" height="130" as="geometry" />
        </mxCell>
        <mxCell id="wjjax50cRB5O2B1YmNTK-80" value="AWS Cloud" style="points=[[0,0],[0.25,0],[0.5,0],[0.75,0],[1,0],[1,0.25],[1,0.5],[1,0.75],[1,1],[0.75,1],[0.5,1],[0.25,1],[0,1],[0,0.75],[0,0.5],[0,0.25]];outlineConnect=0;gradientColor=none;html=1;whiteSpace=wrap;fontSize=12;fontStyle=0;container=1;pointerEvents=0;collapsible=0;recursiveResize=0;shape=mxgraph.aws4.group;grIcon=mxgraph.aws4.group_aws_cloud_alt;strokeColor=#232F3E;fillColor=none;verticalAlign=top;align=left;spacingLeft=30;fontColor=#232F3E;dashed=0;" vertex="1" parent="1">
          <mxGeometry x="160" y="40" width="1360" height="680" as="geometry" />
        </mxCell>
        <mxCell id="wjjax50cRB5O2B1YmNTK-106" value="AWS ECR" style="points=[[0,0],[0.25,0],[0.5,0],[0.75,0],[1,0],[1,0.25],[1,0.5],[1,0.75],[1,1],[0.75,1],[0.5,1],[0.25,1],[0,1],[0,0.75],[0,0.5],[0,0.25]];outlineConnect=0;gradientColor=none;html=1;whiteSpace=wrap;fontSize=12;fontStyle=0;container=0;pointerEvents=0;collapsible=0;recursiveResize=0;shape=mxgraph.aws4.group;grIcon=mxgraph.aws4.ecr;strokeColor=#D86613;fillColor=none;verticalAlign=top;align=left;spacingLeft=30;fontColor=#D86613;dashed=0;" vertex="1" parent="wjjax50cRB5O2B1YmNTK-80">
          <mxGeometry x="1080" y="520" width="200" height="120" as="geometry" />
        </mxCell>
        <mxCell id="wjjax50cRB5O2B1YmNTK-132" style="edgeStyle=orthogonalEdgeStyle;rounded=0;orthogonalLoop=1;jettySize=auto;html=1;exitX=0.5;exitY=1;exitDx=0;exitDy=0;" edge="1" parent="wjjax50cRB5O2B1YmNTK-80" source="wjjax50cRB5O2B1YmNTK-106" target="wjjax50cRB5O2B1YmNTK-106">
          <mxGeometry relative="1" as="geometry" />
        </mxCell>
        <mxCell id="wjjax50cRB5O2B1YmNTK-79" value="Emoney VPC" style="points=[[0,0],[0.25,0],[0.5,0],[0.75,0],[1,0],[1,0.25],[1,0.5],[1,0.75],[1,1],[0.75,1],[0.5,1],[0.25,1],[0,1],[0,0.75],[0,0.5],[0,0.25]];outlineConnect=0;gradientColor=none;html=1;whiteSpace=wrap;fontSize=12;fontStyle=0;container=1;pointerEvents=0;collapsible=0;recursiveResize=0;shape=mxgraph.aws4.group;grIcon=mxgraph.aws4.group_vpc;strokeColor=#248814;fillColor=none;verticalAlign=top;align=left;spacingLeft=30;fontColor=#AAB7B8;dashed=0;" vertex="1" parent="wjjax50cRB5O2B1YmNTK-80">
          <mxGeometry x="1200" y="240" width="120" height="130" as="geometry" />
        </mxCell>
        <mxCell id="wjjax50cRB5O2B1YmNTK-133" value="" style="sketch=0;outlineConnect=0;fontColor=#232F3E;gradientColor=none;fillColor=#D45B07;strokeColor=none;dashed=0;verticalLabelPosition=bottom;verticalAlign=top;align=center;html=1;fontSize=12;fontStyle=0;aspect=fixed;pointerEvents=1;shape=mxgraph.aws4.container_registry_image;" vertex="1" parent="wjjax50cRB5O2B1YmNTK-80">
          <mxGeometry x="1156" y="560" width="48" height="48" as="geometry" />
        </mxCell>
        <mxCell id="wjjax50cRB5O2B1YmNTK-134" value="" style="shape=image;verticalLabelPosition=bottom;labelBackgroundColor=default;verticalAlign=top;aspect=fixed;imageAspect=0;image=https://blog.kakaocdn.net/dn/cSDumP/btrb78NmoRb/ghPTlcwkrBBfckcuiL7KQk/img.jpg;" vertex="1" parent="wjjax50cRB5O2B1YmNTK-80">
          <mxGeometry x="386" y="401" width="34" height="34" as="geometry" />
        </mxCell>
        <mxCell id="wjjax50cRB5O2B1YmNTK-136" value="TGW" style="sketch=0;points=[[0,0,0],[0.25,0,0],[0.5,0,0],[0.75,0,0],[1,0,0],[0,1,0],[0.25,1,0],[0.5,1,0],[0.75,1,0],[1,1,0],[0,0.25,0],[0,0.5,0],[0,0.75,0],[1,0.25,0],[1,0.5,0],[1,0.75,0]];outlineConnect=0;fontColor=#232F3E;gradientColor=#945DF2;gradientDirection=north;fillColor=#5A30B5;strokeColor=#ffffff;dashed=0;verticalLabelPosition=bottom;verticalAlign=top;align=center;html=1;fontSize=12;fontStyle=0;aspect=fixed;shape=mxgraph.aws4.resourceIcon;resIcon=mxgraph.aws4.transit_gateway;" vertex="1" parent="wjjax50cRB5O2B1YmNTK-80">
          <mxGeometry x="1080" y="240" width="78" height="78" as="geometry" />
        </mxCell>
        <mxCell id="wjjax50cRB5O2B1YmNTK-139" value="" style="edgeStyle=orthogonalEdgeStyle;html=1;endArrow=block;elbow=vertical;startArrow=block;startFill=1;endFill=1;strokeColor=#545B64;rounded=0;exitX=1;exitY=0.5;exitDx=0;exitDy=0;exitPerimeter=0;" edge="1" parent="wjjax50cRB5O2B1YmNTK-80" source="wjjax50cRB5O2B1YmNTK-136" target="wjjax50cRB5O2B1YmNTK-79">
          <mxGeometry width="100" relative="1" as="geometry">
            <mxPoint x="1050.0000000000005" y="370.0000000000002" as="sourcePoint" />
            <mxPoint x="1089.9999999999995" y="289" as="targetPoint" />
          </mxGeometry>
        </mxCell>
        <mxCell id="wjjax50cRB5O2B1YmNTK-135" value="" style="edgeStyle=orthogonalEdgeStyle;html=1;endArrow=block;elbow=vertical;startArrow=block;endFill=1;strokeColor=#FF3333;rounded=0;entryX=0;entryY=0.5;entryDx=0;entryDy=0;exitX=1;exitY=0.75;exitDx=0;exitDy=0;startFill=1;" edge="1" parent="1" source="wjjax50cRB5O2B1YmNTK-42" target="wjjax50cRB5O2B1YmNTK-106">
          <mxGeometry width="100" relative="1" as="geometry">
            <mxPoint x="780" y="480" as="sourcePoint" />
            <mxPoint x="880" y="480" as="targetPoint" />
            <Array as="points">
              <mxPoint x="740" y="457" />
              <mxPoint x="740" y="510" />
              <mxPoint x="900" y="510" />
              <mxPoint x="900" y="620" />
            </Array>
          </mxGeometry>
        </mxCell>
        <mxCell id="wjjax50cRB5O2B1YmNTK-138" value="" style="edgeStyle=orthogonalEdgeStyle;html=1;endArrow=block;elbow=vertical;startArrow=block;startFill=1;endFill=1;strokeColor=#545B64;rounded=0;entryX=0;entryY=0.5;entryDx=0;entryDy=0;entryPerimeter=0;exitX=1;exitY=0.5;exitDx=0;exitDy=0;" edge="1" parent="1" source="wjjax50cRB5O2B1YmNTK-15" target="wjjax50cRB5O2B1YmNTK-136">
          <mxGeometry width="100" relative="1" as="geometry">
            <mxPoint x="780" y="480" as="sourcePoint" />
            <mxPoint x="880" y="480" as="targetPoint" />
          </mxGeometry>
        </mxCell>
        <mxCell id="wjjax50cRB5O2B1YmNTK-140" value="" style="edgeStyle=orthogonalEdgeStyle;html=1;endArrow=block;elbow=vertical;startArrow=block;startFill=1;endFill=1;strokeColor=#545B64;rounded=0;entryX=0;entryY=0.5;entryDx=0;entryDy=0;exitX=1;exitY=0.5;exitDx=0;exitDy=0;exitPerimeter=0;" edge="1" parent="1" source="wjjax50cRB5O2B1YmNTK-136" target="wjjax50cRB5O2B1YmNTK-78">
          <mxGeometry width="100" relative="1" as="geometry">
            <mxPoint x="1220.0000000000005" y="420.0000000000002" as="sourcePoint" />
            <mxPoint x="1259.9999999999995" y="339" as="targetPoint" />
          </mxGeometry>
        </mxCell>
        <mxCell id="wjjax50cRB5O2B1YmNTK-141" value="" style="edgeStyle=orthogonalEdgeStyle;html=1;endArrow=block;elbow=vertical;startArrow=block;startFill=1;endFill=1;strokeColor=#545B64;rounded=0;entryX=0.009;entryY=0.435;entryDx=0;entryDy=0;entryPerimeter=0;exitX=1;exitY=0.5;exitDx=0;exitDy=0;" edge="1" parent="1" source="wjjax50cRB5O2B1YmNTK-55" target="wjjax50cRB5O2B1YmNTK-66">
          <mxGeometry width="100" relative="1" as="geometry">
            <mxPoint x="780" y="480" as="sourcePoint" />
            <mxPoint x="830" y="770" as="targetPoint" />
          </mxGeometry>
        </mxCell>
      </root>
    </mxGraphModel>
  </diagram>
</mxfile>
